<mxfile host="app.diagrams.net" modified="2024-05-07T11:22:53.000Z" agent="Mozilla/5.0 (Windows NT 10.0; Win64; x64) AppleWebKit/537.36 (KHTML, like Gecko) Chrome/124.0.0.0 Safari/537.36" etag="XmuiuYShXBghF2VSRiFy" version="24.3.1" type="device">
  <diagram name="PÃ¡gina-1" id="LZ0vMD4xFcR4I24kFpnV">
    <mxGraphModel dx="1434" dy="772" grid="1" gridSize="10" guides="1" tooltips="1" connect="1" arrows="1" fold="1" page="1" pageScale="1" pageWidth="1169" pageHeight="827" math="0" shadow="0">
      <root>
        <mxCell id="0" />
        <mxCell id="1" parent="0" />
        <mxCell id="KZacTmdIzoN7Ga8BMroP-6" style="rounded=0;orthogonalLoop=1;jettySize=auto;html=1;exitX=1;exitY=0.5;exitDx=0;exitDy=0;endArrow=none;endFill=0;startArrow=none;startFill=0;" parent="1" source="KZacTmdIzoN7Ga8BMroP-1" edge="1">
          <mxGeometry relative="1" as="geometry">
            <mxPoint x="670" y="80" as="targetPoint" />
          </mxGeometry>
        </mxCell>
        <mxCell id="KZacTmdIzoN7Ga8BMroP-55" style="edgeStyle=orthogonalEdgeStyle;rounded=0;orthogonalLoop=1;jettySize=auto;html=1;exitX=1;exitY=0.75;exitDx=0;exitDy=0;endArrow=none;endFill=0;startArrow=none;startFill=0;" parent="1" source="KZacTmdIzoN7Ga8BMroP-1" edge="1">
          <mxGeometry relative="1" as="geometry">
            <mxPoint x="670" y="94.99999999999989" as="targetPoint" />
          </mxGeometry>
        </mxCell>
        <mxCell id="wJ4mM77uryMSbkc_zP6m-3" style="edgeStyle=orthogonalEdgeStyle;rounded=0;orthogonalLoop=1;jettySize=auto;html=1;exitX=0;exitY=0.75;exitDx=0;exitDy=0;entryX=1;entryY=0.75;entryDx=0;entryDy=0;startArrow=ERmany;startFill=0;endArrow=ERmany;endFill=0;" parent="1" source="KZacTmdIzoN7Ga8BMroP-1" target="wJ4mM77uryMSbkc_zP6m-2" edge="1">
          <mxGeometry relative="1" as="geometry" />
        </mxCell>
        <mxCell id="wJ4mM77uryMSbkc_zP6m-8" style="edgeStyle=orthogonalEdgeStyle;rounded=0;orthogonalLoop=1;jettySize=auto;html=1;exitX=0.5;exitY=1;exitDx=0;exitDy=0;entryX=0.5;entryY=0;entryDx=0;entryDy=0;startArrow=ERmany;startFill=0;endArrow=ERmany;endFill=0;" parent="1" source="KZacTmdIzoN7Ga8BMroP-1" target="KZacTmdIzoN7Ga8BMroP-15" edge="1">
          <mxGeometry relative="1" as="geometry" />
        </mxCell>
        <mxCell id="wJ4mM77uryMSbkc_zP6m-10" style="edgeStyle=orthogonalEdgeStyle;rounded=0;orthogonalLoop=1;jettySize=auto;html=1;exitX=0.25;exitY=1;exitDx=0;exitDy=0;entryX=0.75;entryY=0;entryDx=0;entryDy=0;startArrow=none;startFill=0;endArrow=none;endFill=0;" parent="1" source="KZacTmdIzoN7Ga8BMroP-1" target="KZacTmdIzoN7Ga8BMroP-24" edge="1">
          <mxGeometry relative="1" as="geometry" />
        </mxCell>
        <mxCell id="wJ4mM77uryMSbkc_zP6m-11" style="edgeStyle=orthogonalEdgeStyle;rounded=0;orthogonalLoop=1;jettySize=auto;html=1;exitX=0;exitY=1;exitDx=0;exitDy=0;entryX=0.25;entryY=0;entryDx=0;entryDy=0;endArrow=none;endFill=0;" parent="1" source="KZacTmdIzoN7Ga8BMroP-1" target="KZacTmdIzoN7Ga8BMroP-24" edge="1">
          <mxGeometry relative="1" as="geometry">
            <Array as="points">
              <mxPoint x="390" y="110" />
              <mxPoint x="390" y="320" />
              <mxPoint x="50" y="320" />
            </Array>
          </mxGeometry>
        </mxCell>
        <mxCell id="KZacTmdIzoN7Ga8BMroP-1" value="Equipo" style="rounded=0;whiteSpace=wrap;html=1;" parent="1" vertex="1">
          <mxGeometry x="380" y="50" width="120" height="60" as="geometry" />
        </mxCell>
        <mxCell id="B9ZKAfvu-iQfuXPmCk-O-5" style="edgeStyle=orthogonalEdgeStyle;rounded=0;orthogonalLoop=1;jettySize=auto;html=1;exitX=0;exitY=0.5;exitDx=0;exitDy=0;endArrow=none;endFill=0;startArrow=ERmany;startFill=0;strokeColor=default;dashed=1;dashPattern=12 12;" parent="1" source="KZacTmdIzoN7Ga8BMroP-4" edge="1">
          <mxGeometry relative="1" as="geometry">
            <mxPoint x="670" y="80" as="targetPoint" />
          </mxGeometry>
        </mxCell>
        <mxCell id="KZacTmdIzoN7Ga8BMroP-4" value="Jugador" style="rounded=0;whiteSpace=wrap;html=1;" parent="1" vertex="1">
          <mxGeometry x="915" y="70" width="120" height="55" as="geometry" />
        </mxCell>
        <mxCell id="B9ZKAfvu-iQfuXPmCk-O-7" style="edgeStyle=orthogonalEdgeStyle;rounded=0;orthogonalLoop=1;jettySize=auto;html=1;exitX=0;exitY=0.5;exitDx=0;exitDy=0;startArrow=ERmany;startFill=0;endArrow=none;endFill=0;dashed=1;dashPattern=12 12;" parent="1" source="KZacTmdIzoN7Ga8BMroP-8" edge="1">
          <mxGeometry relative="1" as="geometry">
            <mxPoint x="670" y="90" as="targetPoint" />
          </mxGeometry>
        </mxCell>
        <mxCell id="KZacTmdIzoN7Ga8BMroP-8" value="Staff" style="rounded=0;whiteSpace=wrap;html=1;" parent="1" vertex="1">
          <mxGeometry x="915" y="220" width="120" height="60" as="geometry" />
        </mxCell>
        <mxCell id="KZacTmdIzoN7Ga8BMroP-22" style="edgeStyle=orthogonalEdgeStyle;rounded=0;orthogonalLoop=1;jettySize=auto;html=1;exitX=1;exitY=0.5;exitDx=0;exitDy=0;startArrow=ERmany;startFill=0;endArrow=none;endFill=0;strokeWidth=1;targetPerimeterSpacing=0;" parent="1" source="KZacTmdIzoN7Ga8BMroP-15" edge="1">
          <mxGeometry relative="1" as="geometry">
            <mxPoint x="630" y="424" as="targetPoint" />
          </mxGeometry>
        </mxCell>
        <mxCell id="KZacTmdIzoN7Ga8BMroP-34" style="edgeStyle=orthogonalEdgeStyle;rounded=0;orthogonalLoop=1;jettySize=auto;html=1;exitX=0.5;exitY=1;exitDx=0;exitDy=0;endArrow=none;endFill=0;" parent="1" source="KZacTmdIzoN7Ga8BMroP-15" edge="1">
          <mxGeometry relative="1" as="geometry">
            <mxPoint x="480" y="570" as="targetPoint" />
          </mxGeometry>
        </mxCell>
        <mxCell id="KZacTmdIzoN7Ga8BMroP-15" value="Competicion" style="rounded=0;whiteSpace=wrap;html=1;" parent="1" vertex="1">
          <mxGeometry x="420" y="394" width="120" height="60" as="geometry" />
        </mxCell>
        <mxCell id="KZacTmdIzoN7Ga8BMroP-20" value="Juego" style="rounded=0;whiteSpace=wrap;html=1;" parent="1" vertex="1">
          <mxGeometry x="790" y="394" width="120" height="60" as="geometry" />
        </mxCell>
        <mxCell id="KZacTmdIzoN7Ga8BMroP-44" style="edgeStyle=orthogonalEdgeStyle;rounded=0;orthogonalLoop=1;jettySize=auto;html=1;entryX=0;entryY=0.5;entryDx=0;entryDy=0;endArrow=none;endFill=0;" parent="1" target="KZacTmdIzoN7Ga8BMroP-20" edge="1">
          <mxGeometry relative="1" as="geometry">
            <mxPoint x="630" y="424" as="sourcePoint" />
          </mxGeometry>
        </mxCell>
        <mxCell id="KZacTmdIzoN7Ga8BMroP-24" value="Enfrentamiento" style="rounded=0;whiteSpace=wrap;html=1;" parent="1" vertex="1">
          <mxGeometry x="20" y="610" width="120" height="60" as="geometry" />
        </mxCell>
        <mxCell id="KZacTmdIzoN7Ga8BMroP-28" style="edgeStyle=orthogonalEdgeStyle;rounded=0;orthogonalLoop=1;jettySize=auto;html=1;entryX=1;entryY=0.5;entryDx=0;entryDy=0;startArrow=none;startFill=0;endArrow=ERmany;endFill=0;" parent="1" target="KZacTmdIzoN7Ga8BMroP-24" edge="1">
          <mxGeometry relative="1" as="geometry">
            <mxPoint x="340" y="640" as="sourcePoint" />
          </mxGeometry>
        </mxCell>
        <mxCell id="KZacTmdIzoN7Ga8BMroP-36" style="edgeStyle=orthogonalEdgeStyle;rounded=0;orthogonalLoop=1;jettySize=auto;html=1;exitX=0;exitY=0.5;exitDx=0;exitDy=0;endArrow=none;endFill=0;" parent="1" source="KZacTmdIzoN7Ga8BMroP-32" edge="1">
          <mxGeometry relative="1" as="geometry">
            <mxPoint x="340" y="640" as="targetPoint" />
          </mxGeometry>
        </mxCell>
        <mxCell id="KZacTmdIzoN7Ga8BMroP-32" value="Jornada" style="rounded=0;whiteSpace=wrap;html=1;" parent="1" vertex="1">
          <mxGeometry x="420" y="610" width="120" height="60" as="geometry" />
        </mxCell>
        <mxCell id="KZacTmdIzoN7Ga8BMroP-35" style="edgeStyle=orthogonalEdgeStyle;rounded=0;orthogonalLoop=1;jettySize=auto;html=1;exitX=0.5;exitY=1;exitDx=0;exitDy=0;entryX=0.5;entryY=0;entryDx=0;entryDy=0;endArrow=ERmany;endFill=0;" parent="1" target="KZacTmdIzoN7Ga8BMroP-32" edge="1">
          <mxGeometry relative="1" as="geometry">
            <mxPoint x="480" y="570" as="sourcePoint" />
          </mxGeometry>
        </mxCell>
        <mxCell id="KZacTmdIzoN7Ga8BMroP-45" value="Formada por" style="text;html=1;align=center;verticalAlign=middle;whiteSpace=wrap;rounded=0;" parent="1" vertex="1">
          <mxGeometry x="240" y="590" width="60" height="30" as="geometry" />
        </mxCell>
        <mxCell id="KZacTmdIzoN7Ga8BMroP-46" value="Tiene" style="text;html=1;align=center;verticalAlign=middle;whiteSpace=wrap;rounded=0;" parent="1" vertex="1">
          <mxGeometry x="490" y="504.75" width="70" height="40" as="geometry" />
        </mxCell>
        <mxCell id="KZacTmdIzoN7Ga8BMroP-47" value="Se basa en" style="text;html=1;align=center;verticalAlign=middle;whiteSpace=wrap;rounded=0;" parent="1" vertex="1">
          <mxGeometry x="580" y="370" width="140" height="40" as="geometry" />
        </mxCell>
        <mxCell id="KZacTmdIzoN7Ga8BMroP-49" value="Formado por" style="text;html=1;align=center;verticalAlign=middle;whiteSpace=wrap;rounded=0;" parent="1" vertex="1">
          <mxGeometry x="540" y="90" width="110" height="50" as="geometry" />
        </mxCell>
        <mxCell id="KZacTmdIzoN7Ga8BMroP-51" value="Disputa" style="text;html=1;align=center;verticalAlign=middle;whiteSpace=wrap;rounded=0;" parent="1" vertex="1">
          <mxGeometry x="110" y="250" width="90" height="70" as="geometry" />
        </mxCell>
        <mxCell id="KZacTmdIzoN7Ga8BMroP-56" value="t6: Maximo 6 jugadores por equipo y minimo 2 (utilizaremos un trigger)" style="text;html=1;align=center;verticalAlign=middle;whiteSpace=wrap;rounded=0;fillColor=#1ba1e2;strokeColor=#006EAF;fontColor=#ffffff;" parent="1" vertex="1">
          <mxGeometry x="700" y="20" width="180" height="50" as="geometry" />
        </mxCell>
        <mxCell id="KZacTmdIzoN7Ga8BMroP-57" value="t2: Comprobaremos que un equipo solo participe una vez por jornada (trigger)" style="text;html=1;align=center;verticalAlign=middle;whiteSpace=wrap;rounded=0;fillColor=#1ba1e2;strokeColor=#006EAF;fontColor=#ffffff;" parent="1" vertex="1">
          <mxGeometry x="340" y="490" width="130" height="69.5" as="geometry" />
        </mxCell>
        <mxCell id="KZacTmdIzoN7Ga8BMroP-58" value="t5: Minimo 1 entrenador&amp;nbsp; (trigger)" style="text;html=1;align=center;verticalAlign=middle;whiteSpace=wrap;rounded=0;fillColor=#1ba1e2;strokeColor=#006EAF;fontColor=#ffffff;" parent="1" vertex="1">
          <mxGeometry x="760" y="180" width="90" height="50" as="geometry" />
        </mxCell>
        <mxCell id="KZacTmdIzoN7Ga8BMroP-59" value="t1: Comprobaremos que se jueguen todos los enfrentamientos de la jornada el mismo dia" style="text;html=1;align=center;verticalAlign=middle;whiteSpace=wrap;rounded=0;fillColor=#1ba1e2;strokeColor=#006EAF;fontColor=#ffffff;" parent="1" vertex="1">
          <mxGeometry x="190" y="650" width="180" height="60" as="geometry" />
        </mxCell>
        <mxCell id="KZacTmdIzoN7Ga8BMroP-60" value="t3: Comprobaremos que el numero de equipos en una competicion es par" style="text;html=1;align=center;verticalAlign=middle;whiteSpace=wrap;rounded=0;fillColor=#1ba1e2;strokeColor=#006EAF;fontColor=#ffffff;" parent="1" vertex="1">
          <mxGeometry x="120" y="379" width="120" height="70" as="geometry" />
        </mxCell>
        <mxCell id="KZacTmdIzoN7Ga8BMroP-62" value="# cod_jornadas&lt;div&gt;num_jornada&lt;div&gt;dia&lt;/div&gt;&lt;/div&gt;" style="text;html=1;align=center;verticalAlign=middle;whiteSpace=wrap;rounded=0;" parent="1" vertex="1">
          <mxGeometry x="540" y="600" width="115" height="90" as="geometry" />
        </mxCell>
        <mxCell id="KZacTmdIzoN7Ga8BMroP-63" value="&lt;div&gt;# cod_juego&lt;/div&gt;nombre&lt;div&gt;desarrolladora&lt;/div&gt;&lt;div&gt;fecha_lanzamiento&lt;/div&gt;" style="text;html=1;align=center;verticalAlign=middle;whiteSpace=wrap;rounded=0;" parent="1" vertex="1">
          <mxGeometry x="920" y="403" width="110" height="51" as="geometry" />
        </mxCell>
        <mxCell id="KZacTmdIzoN7Ga8BMroP-64" value="# cod_efrentamiento&lt;div&gt;fecha&lt;/div&gt;&lt;div&gt;&lt;span style=&quot;background-color: initial;&quot;&gt;hora&lt;/span&gt;&lt;br&gt;&lt;/div&gt;&lt;div&gt;resultado&lt;/div&gt;" style="text;html=1;align=center;verticalAlign=middle;whiteSpace=wrap;rounded=0;" parent="1" vertex="1">
          <mxGeometry x="30" y="680" width="150" height="70" as="geometry" />
        </mxCell>
        <mxCell id="KZacTmdIzoN7Ga8BMroP-65" value="# cod_equipo&lt;div&gt;nombre&lt;/div&gt;&lt;div&gt;fecha_fundacion&lt;/div&gt;" style="text;html=1;align=center;verticalAlign=middle;whiteSpace=wrap;rounded=0;" parent="1" vertex="1">
          <mxGeometry x="440" y="90" width="100" height="90" as="geometry" />
        </mxCell>
        <mxCell id="KZacTmdIzoN7Ga8BMroP-66" value="# cod_jugador&lt;div&gt;nombre_jugador&lt;/div&gt;&lt;div&gt;nacionalidad&lt;/div&gt;&lt;div&gt;fecha_nac&lt;/div&gt;&lt;div&gt;nickname&lt;/div&gt;&lt;div&gt;rol&lt;/div&gt;&lt;div&gt;sueldo&lt;/div&gt;" style="text;html=1;align=center;verticalAlign=middle;whiteSpace=wrap;rounded=0;" parent="1" vertex="1">
          <mxGeometry x="1040" y="50" width="120" height="110" as="geometry" />
        </mxCell>
        <mxCell id="KZacTmdIzoN7Ga8BMroP-67" value="# cod_staff&lt;div&gt;nombre&lt;/div&gt;&lt;div&gt;cargo&lt;/div&gt;&lt;div&gt;sueldo&lt;/div&gt;" style="text;html=1;align=center;verticalAlign=middle;whiteSpace=wrap;rounded=0;" parent="1" vertex="1">
          <mxGeometry x="1030" y="210" width="135" height="80" as="geometry" />
        </mxCell>
        <mxCell id="KZacTmdIzoN7Ga8BMroP-68" value="#cod_compe&lt;div&gt;nombre&lt;/div&gt;&lt;div&gt;fecha_inicio&lt;/div&gt;&lt;div&gt;fecha_fin&lt;/div&gt;&lt;div&gt;curso&lt;/div&gt;&lt;div&gt;Â· equipo_ganador&lt;/div&gt;" style="text;html=1;align=center;verticalAlign=middle;whiteSpace=wrap;rounded=0;" parent="1" vertex="1">
          <mxGeometry x="300" y="374" width="110" height="100" as="geometry" />
        </mxCell>
        <mxCell id="KZacTmdIzoN7Ga8BMroP-69" value="Usuarios" style="rounded=0;whiteSpace=wrap;html=1;" parent="1" vertex="1">
          <mxGeometry x="915" y="529.5" width="120" height="60" as="geometry" />
        </mxCell>
        <mxCell id="KZacTmdIzoN7Ga8BMroP-72" value="# identificador&lt;div&gt;contraseÃ±a&lt;br&gt;&lt;div&gt;tipo&lt;/div&gt;&lt;/div&gt;" style="text;html=1;align=center;verticalAlign=middle;whiteSpace=wrap;rounded=0;" parent="1" vertex="1">
          <mxGeometry x="1040" y="519.5" width="110" height="80.5" as="geometry" />
        </mxCell>
        <mxCell id="KZacTmdIzoN7Ga8BMroP-73" value="Resultados_Ultima" style="rounded=0;whiteSpace=wrap;html=1;" parent="1" vertex="1">
          <mxGeometry x="720" y="650.25" width="120" height="60" as="geometry" />
        </mxCell>
        <mxCell id="KZacTmdIzoN7Ga8BMroP-74" value="Resultados" style="rounded=0;whiteSpace=wrap;html=1;" parent="1" vertex="1">
          <mxGeometry x="915" y="650" width="120" height="60" as="geometry" />
        </mxCell>
        <mxCell id="KZacTmdIzoN7Ga8BMroP-76" value="xml" style="text;html=1;align=center;verticalAlign=middle;whiteSpace=wrap;rounded=0;" parent="1" vertex="1">
          <mxGeometry x="830" y="665.25" width="60" height="30" as="geometry" />
        </mxCell>
        <mxCell id="KZacTmdIzoN7Ga8BMroP-77" value="xml" style="text;html=1;align=center;verticalAlign=middle;whiteSpace=wrap;rounded=0;" parent="1" vertex="1">
          <mxGeometry x="1040" y="665" width="60" height="30" as="geometry" />
        </mxCell>
        <mxCell id="KZacTmdIzoN7Ga8BMroP-78" value="Clasificacion" style="rounded=0;whiteSpace=wrap;html=1;" parent="1" vertex="1">
          <mxGeometry x="720" y="529.5" width="120" height="60" as="geometry" />
        </mxCell>
        <mxCell id="KZacTmdIzoN7Ga8BMroP-79" value="xml" style="text;html=1;align=center;verticalAlign=middle;whiteSpace=wrap;rounded=0;" parent="1" vertex="1">
          <mxGeometry x="840" y="544.5" width="40" height="30" as="geometry" />
        </mxCell>
        <mxCell id="wJ4mM77uryMSbkc_zP6m-1" value="Formado por" style="text;html=1;align=center;verticalAlign=middle;whiteSpace=wrap;rounded=0;" parent="1" vertex="1">
          <mxGeometry x="550" y="40" width="110" height="50" as="geometry" />
        </mxCell>
        <mxCell id="wJ4mM77uryMSbkc_zP6m-2" value="Patrocinador" style="rounded=0;whiteSpace=wrap;html=1;" parent="1" vertex="1">
          <mxGeometry x="100" y="50" width="120" height="60" as="geometry" />
        </mxCell>
        <mxCell id="wJ4mM77uryMSbkc_zP6m-4" value="# cod_patrocinadores&amp;nbsp;&lt;div&gt;nombre&lt;/div&gt;" style="text;html=1;align=center;verticalAlign=middle;whiteSpace=wrap;rounded=0;" parent="1" vertex="1">
          <mxGeometry x="80" y="120" width="150" height="30" as="geometry" />
        </mxCell>
        <mxCell id="wJ4mM77uryMSbkc_zP6m-5" value="t4: Maximo 1 asistente&lt;div&gt;(trigger)&lt;/div&gt;" style="text;html=1;align=center;verticalAlign=middle;whiteSpace=wrap;rounded=0;fillColor=#1ba1e2;fontColor=#ffffff;strokeColor=#006EAF;" parent="1" vertex="1">
          <mxGeometry x="760" y="260" width="90" height="50" as="geometry" />
        </mxCell>
        <mxCell id="wJ4mM77uryMSbkc_zP6m-9" value="puntos" style="text;html=1;align=center;verticalAlign=middle;whiteSpace=wrap;rounded=0;" parent="1" vertex="1">
          <mxGeometry x="440" y="220" width="60" height="30" as="geometry" />
        </mxCell>
        <mxCell id="B9ZKAfvu-iQfuXPmCk-O-1" value="#cod_patr_equi&lt;div&gt;&lt;br&gt;&lt;/div&gt;" style="text;html=1;align=center;verticalAlign=middle;whiteSpace=wrap;rounded=0;" parent="1" vertex="1">
          <mxGeometry x="250" y="50" width="100" height="40" as="geometry" />
        </mxCell>
      </root>
    </mxGraphModel>
  </diagram>
</mxfile>
